<svg width="17" height="17" viewBox="0 0 17 17" fill="none" xmlns="http://www.w3.org/2000/svg">
<path fill-rule="evenodd" clip-rule="evenodd" d="M4.67435 2.83341C3.6586 2.83341 2.83268 3.65933 2.83268 4.67508C2.83268 9.90825 7.09047 14.1667 12.3243 14.1667C13.3394 14.1667 14.166 13.3408 14.166 12.3251C14.166 12.2465 14.1611 12.1692 14.1511 12.0927L10.8786 11.3419C10.8135 11.4666 10.7419 11.6019 10.6768 11.728C10.3538 12.3442 10.12 12.7919 9.5236 12.5517C7.18185 11.7301 5.27006 9.81758 4.43777 7.4475C4.18489 6.89146 4.66656 6.63929 5.27714 6.32054C5.4011 6.25537 5.53497 6.18525 5.65752 6.1215L4.90668 2.84829C4.82806 2.83837 4.75156 2.83341 4.67435 2.83341ZM12.3243 15.5834C6.30918 15.5834 1.41602 10.6902 1.41602 4.67508C1.41602 2.87804 2.87731 1.41675 4.67435 1.41675C4.85852 1.41675 5.04056 1.43233 5.21693 1.46279C5.38906 1.49041 5.56189 1.53433 5.73047 1.59241C5.96068 1.67246 6.13422 1.86583 6.18877 2.10383L7.15847 6.32833C7.21231 6.56067 7.14502 6.80433 6.97927 6.97716C6.88293 7.07775 6.88081 7.07987 6.00247 7.53958C6.71364 9.0795 7.94968 10.3113 9.45843 10.9984C9.91885 10.1193 9.92168 10.1165 10.0223 10.0202C10.1951 9.85441 10.4402 9.78996 10.6711 9.84096L14.8963 10.8107C15.1336 10.8652 15.327 11.038 15.4063 11.2682C15.4644 11.4354 15.5083 11.6082 15.5374 11.786C15.5671 11.961 15.5827 12.1423 15.5827 12.3251C15.5827 14.1221 14.1207 15.5834 12.3243 15.5834Z" fill="black"/>
<mask id="mask0" mask-type="alpha" maskUnits="userSpaceOnUse" x="1" y="1" width="15" height="15">
<path fill-rule="evenodd" clip-rule="evenodd" d="M4.67435 2.83341C3.6586 2.83341 2.83268 3.65933 2.83268 4.67508C2.83268 9.90825 7.09047 14.1667 12.3243 14.1667C13.3394 14.1667 14.166 13.3408 14.166 12.3251C14.166 12.2465 14.1611 12.1692 14.1511 12.0927L10.8786 11.3419C10.8135 11.4666 10.7419 11.6019 10.6768 11.728C10.3538 12.3442 10.12 12.7919 9.5236 12.5517C7.18185 11.7301 5.27006 9.81758 4.43777 7.4475C4.18489 6.89146 4.66656 6.63929 5.27714 6.32054C5.4011 6.25537 5.53497 6.18525 5.65752 6.1215L4.90668 2.84829C4.82806 2.83837 4.75156 2.83341 4.67435 2.83341ZM12.3243 15.5834C6.30918 15.5834 1.41602 10.6902 1.41602 4.67508C1.41602 2.87804 2.87731 1.41675 4.67435 1.41675C4.85852 1.41675 5.04056 1.43233 5.21693 1.46279C5.38906 1.49041 5.56189 1.53433 5.73047 1.59241C5.96068 1.67246 6.13422 1.86583 6.18877 2.10383L7.15847 6.32833C7.21231 6.56067 7.14502 6.80433 6.97927 6.97716C6.88293 7.07775 6.88081 7.07987 6.00247 7.53958C6.71364 9.0795 7.94968 10.3113 9.45843 10.9984C9.91885 10.1193 9.92168 10.1165 10.0223 10.0202C10.1951 9.85441 10.4402 9.78996 10.6711 9.84096L14.8963 10.8107C15.1336 10.8652 15.327 11.038 15.4063 11.2682C15.4644 11.4354 15.5083 11.6082 15.5374 11.786C15.5671 11.961 15.5827 12.1423 15.5827 12.3251C15.5827 14.1221 14.1207 15.5834 12.3243 15.5834Z" fill="white"/>
</mask>
<g mask="url(#mask0)">
<rect width="17" height="17" fill="#FE5F1E"/>
</g>
</svg>
