<svg width="32" height="31" viewBox="0 0 32 31" fill="none" xmlns="http://www.w3.org/2000/svg">
<path fill-rule="evenodd" clip-rule="evenodd" d="M21.912 18.0165H12.0721L9.95761 10.2951H25.787L21.912 18.0165ZM27.9829 8.94126C27.5088 8.17684 26.6873 7.72128 25.7857 7.72128H9.2524L8.45544 4.80904C8.30173 4.24924 7.79153 3.8606 7.20898 3.8606H4.62565C3.91136 3.8606 3.33398 4.43712 3.33398 5.14749C3.33398 5.85786 3.91136 6.43439 4.62565 6.43439H6.22215L9.83753 19.6418C9.99124 20.2016 10.5014 20.5902 11.084 20.5902H22.709C23.1985 20.5902 23.6454 20.3148 23.865 19.8786L28.0965 11.4456C28.5008 10.6412 28.4569 9.70567 27.9829 8.94126ZM10.4384 23.164C9.36893 23.164 8.50093 24.0275 8.50093 25.0944C8.50093 26.1612 9.36893 27.0247 10.4384 27.0247C11.5079 27.0247 12.3759 26.1612 12.3759 25.0944C12.3759 24.0275 11.5079 23.164 10.4384 23.164ZM21.4176 25.0944C21.4176 24.0275 22.2856 23.164 23.3551 23.164C24.4246 23.164 25.2926 24.0275 25.2926 25.0944C25.2926 26.1612 24.4246 27.0247 23.3551 27.0247C22.2856 27.0247 21.4176 26.1612 21.4176 25.0944Z" fill="black"/>
<mask id="mask0" mask-type="alpha" maskUnits="userSpaceOnUse" x="3" y="3" width="26" height="25">
<path fill-rule="evenodd" clip-rule="evenodd" d="M21.912 18.0165H12.0721L9.95761 10.2951H25.787L21.912 18.0165ZM27.9829 8.94126C27.5088 8.17684 26.6873 7.72128 25.7857 7.72128H9.2524L8.45544 4.80904C8.30173 4.24924 7.79153 3.8606 7.20898 3.8606H4.62565C3.91136 3.8606 3.33398 4.43712 3.33398 5.14749C3.33398 5.85786 3.91136 6.43439 4.62565 6.43439H6.22215L9.83753 19.6418C9.99124 20.2016 10.5014 20.5902 11.084 20.5902H22.709C23.1985 20.5902 23.6454 20.3148 23.865 19.8786L28.0965 11.4456C28.5008 10.6412 28.4569 9.70567 27.9829 8.94126ZM10.4384 23.164C9.36893 23.164 8.50093 24.0275 8.50093 25.0944C8.50093 26.1612 9.36893 27.0247 10.4384 27.0247C11.5079 27.0247 12.3759 26.1612 12.3759 25.0944C12.3759 24.0275 11.5079 23.164 10.4384 23.164ZM21.4176 25.0944C21.4176 24.0275 22.2856 23.164 23.3551 23.164C24.4246 23.164 25.2926 24.0275 25.2926 25.0944C25.2926 26.1612 24.4246 27.0247 23.3551 27.0247C22.2856 27.0247 21.4176 26.1612 21.4176 25.0944Z" fill="white"/>
</mask>
<g mask="url(#mask0)">
<rect x="0.75" width="31" height="30.8855" fill="#FE5F1E"/>
</g>
</svg>
